# xmcd
#
# Track frame offsets:
#	150
#	21777
#	41285
#	64835
#	83475
#	107137
#	130520
#	149420
#	168242
#	190905
#
# Disc length: 2825 seconds
#
# Revision: 0
# Processed by: cddbd v1.5.1PL0 Copyright (c) Steve Scherf et al.
# Submitted via: EasyCDDAExtractor 8.2.1.1
#
DISCID=7a0b070a
DTITLE=ORHAN GENCEBAY - UTAN DOKUNMA
DYEAR=1990
DGENRE=Alternative
TTITLE0=UTAN
TTITLE1=GOLGELER
TTITLE2=DILENCI
TTITLE3=AKLIMI ALDILAR
TTITLE4=BILSEYDIM
TTITLE5=DOKUNMA
TTITLE6=GOZU VAR
TTITLE7=HADI GIT
TTITLE8=SUC DEGIL
TTITLE9=DAHA NE OLSUN
EXTD=
EXTT0=
EXTT1=
EXTT2=
EXTT3=
EXTT4=
EXTT5=
EXTT6=
EXTT7=
EXTT8=
EXTT9=
PLAYORDER=
